<svg width="1715" height="699" viewBox="0 0 1715 699" fill="none" xmlns="http://www.w3.org/2000/svg">
<path d="M-216.02 0H-717.553C-752.503 0 -780.463 27.96 -780.463 62.91V636.09C-780.463 671.04 -752.503 699 -717.553 699H-216.02C-181.07 699 -153.11 671.04 -153.11 636.09V62.91C-153.11 27.96 -181.07 0 -216.02 0ZM-188.06 636.09C-188.06 651.818 -200.293 664.05 -216.02 664.05H-717.553C-733.28 664.05 -745.513 651.818 -745.513 636.09V62.91C-745.513 47.1825 -733.28 34.95 -717.553 34.95H-216.02C-200.293 34.95 -188.06 47.1825 -188.06 62.91V636.09ZM-623.188 594.15L-544.55 524.25L-623.188 454.35V594.15ZM-340.093 311.055C-354.073 297.075 -380.285 279.6 -423.973 279.6C-471.155 279.6 -520.085 291.832 -555.035 304.065V104.85H-623.188V407.167L-574.258 384.45C-574.258 384.45 -493.873 347.753 -423.973 347.753C-389.023 347.753 -380.285 366.975 -380.285 384.45V594.15H-310.385V384.45C-310.385 379.208 -310.385 340.762 -340.093 311.055ZM-432.71 218.438H-362.81C-331.355 181.74 -315.628 145.043 -310.385 104.85H-380.285C-387.275 145.043 -404.75 181.74 -432.71 218.438ZM1498.28 382.703V227.175H1568.18V380.955C1568.18 415.905 1580.41 433.38 1608.37 433.38C1636.33 433.38 1646.81 417.652 1646.81 380.955V227.175H1714.97V382.703C1714.97 450.855 1681.77 491.048 1606.62 491.048C1531.48 491.048 1498.28 450.855 1498.28 382.703ZM1204.7 228.923H1274.6V323.288L1346.24 228.923H1426.63L1339.26 330.278L1433.62 487.553H1354.98L1293.82 384.45L1274.6 407.167V487.553H1204.7V228.923ZM872.672 356.49C872.672 262.125 937.33 221.933 1000.24 221.933C1063.15 221.933 1127.81 262.125 1127.81 356.49C1127.81 450.855 1063.15 491.048 1000.24 491.048C937.33 491.048 872.672 452.603 872.672 356.49ZM1056.16 356.49C1056.16 309.307 1035.19 279.6 998.493 279.6C961.795 279.6 940.825 309.307 940.825 356.49C940.825 403.673 961.795 435.128 998.493 435.128C1035.19 435.128 1056.16 405.42 1056.16 356.49ZM591.325 228.923H692.68C759.085 228.923 799.278 251.64 799.278 312.803C799.278 352.995 781.803 377.46 748.6 387.945L802.772 487.553H729.378L678.7 398.43H659.478V487.553H591.325V228.923ZM690.932 344.258C718.892 344.258 732.872 335.52 732.872 314.55C732.872 293.58 720.64 284.842 690.932 284.842H661.225V344.258H690.932ZM323.958 228.923H509.193V286.59H393.857V328.53H475.99V382.703H393.857V429.885H514.435V485.805H323.958V228.923ZM7.65997 228.923H77.56V325.035H163.187V228.923H233.087V487.553H163.187V382.703H77.56V487.553H7.65997V228.923Z" fill="white"/>
</svg>
