<svg width="288" height="120" viewBox="0 0 288 120" fill="none" xmlns="http://www.w3.org/2000/svg">
<g clip-path="url(#clip0_48_1357)">
<path d="M27.09 34.8535C39.937 34.8535 48.289 41.9964 48.289 53.4689C48.289 61.8683 43.378 68.1098 35.678 70.7731L50.773 96.149H39.576L25.494 72.0706H9.94098V96.149H0.297974V34.8535H27.09ZM9.92698 43.3895V63.6301H26.632C34.29 63.6301 38.244 59.4236 38.244 53.4689C38.244 47.3775 34.304 43.3895 26.632 43.3895H9.92698Z" fill="#ffffff"/>
<path d="M75.3029 51.8848C88.1499 51.8848 96.503 61.2812 96.503 72.8902C96.503 74.2423 96.405 75.6491 96.142 77.0422H61.9559C62.3719 83.5432 68.019 88.6512 75.636 88.6512C81.144 88.6512 85.5419 86.343 88.8439 81.2487L95.545 86.0425C91.466 93.2674 83.433 97.0643 75.636 97.0643C62.33 97.0643 52.549 87.3946 52.549 74.5291C52.549 61.5953 61.9559 51.8848 75.3029 51.8848ZM87.276 70.3499C86.721 64.2586 81.5459 59.9564 75.2059 59.9564C68.4629 59.9564 63.3149 64.2449 62.1779 70.3499H87.276Z" fill="#ffffff"/>
<path d="M104.938 96.1492V52.7862H114.067V58.2492C115.538 56.0367 119.714 51.8848 127.609 51.8848C139.721 51.8848 146.103 59.2872 146.103 69.8173V96.1492H137.015V71.7157C137.015 64.5317 133.02 60.3798 126.18 60.3798C119.478 60.3798 114.026 64.5317 114.026 71.7157V96.1492H104.938Z" fill="#ffffff"/>
<path d="M175.711 51.8852C183.189 51.8852 188.142 54.5894 191.403 58.7003V32.5459H200.49V96.1496H191.403V90.2358C188.142 94.3468 183.189 97.051 175.711 97.051C163.182 97.051 153.595 87.5589 153.595 74.2427C153.595 60.9129 163.182 51.8852 175.711 51.8852ZM162.669 74.2427C162.669 82.2325 168.316 89.0066 176.807 89.0066C185.298 89.0066 191.347 82.2325 191.347 74.2427C191.347 66.253 185.242 59.9295 176.807 59.9295C168.316 59.9159 162.669 66.2393 162.669 74.2427Z" fill="#ffffff"/>
<path d="M230.944 51.8848C243.792 51.8848 252.144 61.2812 252.144 72.8902C252.144 74.2423 252.047 75.6491 251.783 77.0422H217.597C218.013 83.5432 223.66 88.6512 231.277 88.6512C236.785 88.6512 241.183 86.343 244.486 81.2487L251.187 86.0425C247.108 93.2674 239.075 97.0643 231.277 97.0643C217.972 97.0643 208.19 87.3946 208.19 74.5291C208.177 61.5953 217.583 51.8848 230.944 51.8848ZM242.918 70.3499C242.363 64.2586 237.188 59.9564 230.847 59.9564C224.104 59.9564 218.957 64.2449 217.819 70.3499H242.918Z" fill="#ffffff"/>
<path d="M260.926 96.1492V52.7862H270.056V58.6999C272.539 53.9607 276.715 51.8848 281.53 51.8848C284.971 51.8848 287.593 52.9637 287.593 52.9637L286.635 61.1856C286.136 61.0081 284.152 60.1886 281.266 60.1886C276.396 60.1886 270.07 62.7153 270.07 72.5215V96.1492H260.926Z" fill="#ffffff"/>
</g>
<defs>
<clipPath id="clip0_48_1357">
<rect width="288" height="120" fill="white"/>
</clipPath>
</defs>
</svg>
